<svg width="17" height="16" viewBox="0 0 17 16" fill="none" xmlns="http://www.w3.org/2000/svg">
<g opacity="0.75" clip-path="url(#clip0_609_981)">
<path fill-rule="evenodd" clip-rule="evenodd" d="M3.92841 1.67524C3.92485 2.11501 4.08822 2.53977 4.38556 2.86381L9.24498 7.99981L4.38556 13.1358C4.08782 13.4589 3.92254 13.8822 3.92254 14.3215C3.92254 14.7609 4.08782 15.1842 4.38556 15.5072C4.52795 15.6626 4.7011 15.7867 4.89401 15.8715C5.08692 15.9564 5.29537 16.0002 5.50613 16.0002C5.71688 16.0002 5.92533 15.9564 6.11824 15.8715C6.31115 15.7867 6.4843 15.6626 6.6267 15.5072L12.6061 9.18495C12.9051 8.86318 13.0713 8.4402 13.0713 8.00095C13.0713 7.56171 12.9051 7.13873 12.6061 6.81695L6.63241 0.492383C6.49002 0.337012 6.31687 0.21295 6.12396 0.128078C5.93105 0.0432065 5.7226 -0.000620531 5.51184 -0.000620549C5.30109 -0.000620568 5.09264 0.0432065 4.89973 0.128078C4.70682 0.21295 4.53367 0.337012 4.39127 0.492383C4.09429 0.814363 3.93087 1.23723 3.93413 1.67524" fill="#FFFDFA"/>
</g>
<defs>
<clipPath id="clip0_609_981">
<rect width="16" height="16" fill="white" transform="translate(16.5 16) rotate(-180)"/>
</clipPath>
</defs>
</svg>
