<svg width="32" height="32" viewBox="0 0 32 32" fill="none" xmlns="http://www.w3.org/2000/svg">
<path d="M13 24C12.7349 23.9964 12.4808 23.8938 12.2875 23.7125L5.28746 16.7125C5.128 16.5182 5.04651 16.2715 5.05884 16.0205C5.07117 15.7694 5.17644 15.5319 5.35417 15.3542C5.53191 15.1764 5.7694 15.0712 6.02045 15.0588C6.2715 15.0465 6.51817 15.128 6.71246 15.2875L13 21.5875L26.2875 8.28746C26.4818 8.128 26.7284 8.04651 26.9795 8.05884C27.2305 8.07117 27.468 8.17644 27.6458 8.35417C27.8235 8.53191 27.9288 8.7694 27.9411 9.02045C27.9534 9.2715 27.8719 9.51817 27.7125 9.71246L13.7125 23.7125C13.5191 23.8938 13.265 23.9964 13 24Z" fill="#EAEAEA"/>
</svg>
