<svg width="24" height="24" viewBox="0 0 24 24" fill="none" xmlns="http://www.w3.org/2000/svg">
<path fill-rule="evenodd" clip-rule="evenodd" d="M8 4C6.89543 4 6 4.89543 6 6V18C6 19.1046 6.89543 20 8 20H16C17.1046 20 18 19.1046 18 18V8.82843C18 8.56321 17.8946 8.30886 17.7071 8.12132L13.8787 4.29289C13.6911 4.10536 13.4368 4 13.1716 4H8ZM4 6C4 3.79086 5.79086 2 8 2H13.1716C13.9672 2 14.7303 2.31607 15.2929 2.87868L19.1213 6.70711C19.6839 7.26972 20 8.03278 20 8.82843V18C20 20.2091 18.2091 22 16 22H8C5.79086 22 4 20.2091 4 18V6Z" fill="#FFFDFA"/>
<path fill-rule="evenodd" clip-rule="evenodd" d="M8.79289 11.2929C9.18342 10.9024 9.81658 10.9024 10.2071 11.2929L12 13.0858L13.7929 11.2929C14.1834 10.9024 14.8166 10.9024 15.2071 11.2929C15.5976 11.6834 15.5976 12.3166 15.2071 12.7071L13.4142 14.5L15.2071 16.2929C15.5976 16.6834 15.5976 17.3166 15.2071 17.7071C14.8166 18.0976 14.1834 18.0976 13.7929 17.7071L12 15.9142L10.2071 17.7071C9.81658 18.0976 9.18342 18.0976 8.79289 17.7071C8.40237 17.3166 8.40237 16.6834 8.79289 16.2929L10.5858 14.5L8.79289 12.7071C8.40237 12.3166 8.40237 11.6834 8.79289 11.2929Z" fill="#FFFDFA"/>
<path fill-rule="evenodd" clip-rule="evenodd" d="M14 3V5C14 6.65685 15.3431 8 17 8H19V10H17C14.2386 10 12 7.76142 12 5V3H14Z" fill="#FFFDFA"/>
</svg>
