<svg width="24" height="24" viewBox="0 0 24 24" fill="none" xmlns="http://www.w3.org/2000/svg">
<path d="M5 5H19" stroke="#FFFDFA" stroke-width="2" stroke-linecap="round"/>
<path d="M8 5H8.11111C9.03159 5 9.77778 4.25381 9.77778 3.33333C9.77778 3.14924 9.92702 3 10.1111 3H13.8889C14.073 3 14.2222 3.14924 14.2222 3.33333C14.2222 4.25381 14.9684 5 15.8889 5H16" stroke="#FFFDFA" stroke-width="2"/>
<path d="M18 9L17.2292 18.2491C17.0997 19.804 15.7999 21 14.2396 21H9.7604C8.20013 21 6.90033 19.804 6.77076 18.2491L6 9" stroke="#FFFDFA" stroke-width="2" stroke-linecap="round"/>
<path fill-rule="evenodd" clip-rule="evenodd" d="M9.70921 10.7511C9.98816 10.4163 10.4404 10.4163 10.7194 10.7511L12 12.2878L13.2807 10.7511C13.5596 10.4163 14.0119 10.4163 14.2908 10.7511C14.5697 11.0858 14.5697 11.6285 14.2908 11.9632L13.0102 13.5L14.2908 15.0368C14.5697 15.3715 14.5697 15.9142 14.2908 16.2489C14.0119 16.5837 13.5596 16.5837 13.2807 16.2489L12 14.7122L10.7194 16.2489C10.4404 16.5837 9.98816 16.5837 9.70921 16.2489C9.43026 15.9142 9.43026 15.3715 9.70921 15.0368L10.9899 13.5L9.70921 11.9632C9.43026 11.6285 9.43026 11.0858 9.70921 10.7511Z" fill="#FFFDFA"/>
</svg>
