<svg width="25" height="24" viewBox="0 0 25 24" fill="none" xmlns="http://www.w3.org/2000/svg">
<path fill-rule="evenodd" clip-rule="evenodd" d="M7.5 4C5.84315 4 4.5 5.34315 4.5 7V17C4.5 18.6569 5.84315 20 7.5 20H17.5C19.1569 20 20.5 18.6569 20.5 17V11C20.5 10.4477 20.9477 10 21.5 10C22.0523 10 22.5 10.4477 22.5 11V17C22.5 19.7614 20.2614 22 17.5 22H7.5C4.73858 22 2.5 19.7614 2.5 17V7C2.5 4.23858 4.73858 2 7.5 2H13.5C14.0523 2 14.5 2.44772 14.5 3C14.5 3.55228 14.0523 4 13.5 4H7.5Z" fill="#A3333D"/>
<path fill-rule="evenodd" clip-rule="evenodd" d="M19.6974 4C19.4845 4 19.2803 4.08457 19.1298 4.23509L11.2528 12.1121L10.8744 13.6256L12.3879 13.2473L20.2649 5.37021C20.4155 5.21969 20.5 5.01553 20.5 4.80265C20.5 4.58978 20.4155 4.38562 20.2649 4.23509C20.1144 4.08457 19.9102 4 19.6974 4ZM17.7156 2.82088C18.2412 2.29528 18.9541 2 19.6974 2C20.4407 2 21.1535 2.29528 21.6791 2.82088C22.2047 3.34648 22.5 4.05934 22.5 4.80265C22.5 5.54596 22.2047 6.25883 21.6791 6.78443L13.6062 14.8573C13.4781 14.9855 13.3175 15.0764 13.1417 15.1204L9.74256 15.9701C9.40178 16.0553 9.04129 15.9555 8.79291 15.7071C8.54453 15.4587 8.44468 15.0982 8.52988 14.7575L9.37966 11.3583C9.42362 11.1825 9.51453 11.0219 9.64269 10.8938L17.7156 2.82088Z" fill="#A3333D"/>
<path fill-rule="evenodd" clip-rule="evenodd" d="M15.7929 5.29289C16.1834 4.90237 16.8166 4.90237 17.2071 5.29289L19.2071 7.29289C19.5976 7.68342 19.5976 8.31658 19.2071 8.70711C18.8166 9.09763 18.1834 9.09763 17.7929 8.70711L15.7929 6.70711C15.4024 6.31658 15.4024 5.68342 15.7929 5.29289Z" fill="#A3333D"/>
</svg>
