<svg width="20" height="18" viewBox="0 0 20 18" fill="none" xmlns="http://www.w3.org/2000/svg">
<path d="M10 6L6 10L7.4 11.4L9 9.8V14H11V9.8L12.6 11.4L14 10L10 6Z" fill="#FFFDFA"/>
<path d="M3 18C2.45 18 1.979 17.8043 1.587 17.413C1.19567 17.021 1 16.55 1 16V3.5C1 3.25 1.04167 3.025 1.125 2.825C1.20833 2.625 1.31667 2.43333 1.45 2.25L2.85 0.55C2.98333 0.366667 3.15 0.229 3.35 0.137C3.55 0.0456668 3.76667 0 4 0H16C16.2333 0 16.45 0.0456668 16.65 0.137C16.85 0.229 17.0167 0.366667 17.15 0.55L18.55 2.25C18.6833 2.43333 18.7917 2.625 18.875 2.825C18.9583 3.025 19 3.25 19 3.5V16C19 16.55 18.8043 17.021 18.413 17.413C18.021 17.8043 17.55 18 17 18H3ZM3.4 3H16.6L15.75 2H4.25L3.4 3ZM3 5V16H17V5H3Z" fill="#FFFDFA"/>
</svg>
