<svg width="25" height="25" viewBox="0 0 25 25" fill="none" xmlns="http://www.w3.org/2000/svg">
<path d="M5.5 5.5H19.5" stroke="#FFFDFA" stroke-width="2" stroke-linecap="round"/>
<path d="M8.5 5.5H8.61111C9.53159 5.5 10.2778 4.75381 10.2778 3.83333C10.2778 3.64924 10.427 3.5 10.6111 3.5H14.3889C14.573 3.5 14.7222 3.64924 14.7222 3.83333C14.7222 4.75381 15.4684 5.5 16.3889 5.5H16.5" stroke="#FFFDFA" stroke-width="2"/>
<path d="M18.5 9.5L17.7292 18.7491C17.5997 20.304 16.2999 21.5 14.7396 21.5H10.2604C8.70013 21.5 7.40033 20.304 7.27076 18.7491L6.5 9.5" stroke="#FFFDFA" stroke-width="2" stroke-linecap="round"/>
<path fill-rule="evenodd" clip-rule="evenodd" d="M12.5 10C12.7761 10 13 10.2239 13 10.5V16.5C13 16.7761 12.7761 17 12.5 17C12.2239 17 12 16.7761 12 16.5V10.5C12 10.2239 12.2239 10 12.5 10Z" fill="#FFFDFA"/>
<path fill-rule="evenodd" clip-rule="evenodd" d="M12.1464 9.14645C12.3417 8.95118 12.6583 8.95118 12.8536 9.14645L14.8536 11.1464C15.0488 11.3417 15.0488 11.6583 14.8536 11.8536C14.6583 12.0488 14.3417 12.0488 14.1464 11.8536L12.5 10.2071L10.8536 11.8536C10.6583 12.0488 10.3417 12.0488 10.1464 11.8536C9.9512 11.6583 9.9512 11.3417 10.1464 11.1464L12.1464 9.14645Z" fill="#FFFDFA"/>
<path fill-rule="evenodd" clip-rule="evenodd" d="M12.5 10C12.7761 10 13 10.2239 13 10.5V16.5C13 16.7761 12.7761 17 12.5 17C12.2239 17 12 16.7761 12 16.5V10.5C12 10.2239 12.2239 10 12.5 10Z" fill="#FFFDFA"/>
<path fill-rule="evenodd" clip-rule="evenodd" d="M12.1464 9.14645C12.3417 8.95118 12.6583 8.95118 12.8536 9.14645L14.8536 11.1464C15.0488 11.3417 15.0488 11.6583 14.8536 11.8536C14.6583 12.0488 14.3417 12.0488 14.1464 11.8536L12.5 10.2071L10.8536 11.8536C10.6583 12.0488 10.3417 12.0488 10.1464 11.8536C9.9512 11.6583 9.9512 11.3417 10.1464 11.1464L12.1464 9.14645Z" fill="#FFFDFA"/>
</svg>
