<svg width="24" height="24" viewBox="0 0 24 24" fill="none" xmlns="http://www.w3.org/2000/svg">
<path d="M17.2215 6.12834L17.2222 6.12937L21.1822 11.7094L21.1822 11.7094L21.1848 11.7129C21.2452 11.7965 21.2777 11.8969 21.2777 12C21.2777 12.1031 21.2452 12.2035 21.1848 12.2871L21.1822 12.2906L17.2222 17.8706L17.2215 17.8717C16.9531 18.252 16.504 18.4999 16.0005 18.5C16.0003 18.5 16.0002 18.5 16 18.5L5.00045 18.49H5C4.17287 18.49 3.5 17.8206 3.5 17V7C3.5 6.1794 4.17287 5.51 5 5.51L5.00045 5.51L16 5.5C16.0001 5.5 16.0001 5.5 16.0002 5.5C16.5038 5.50007 16.953 5.74797 17.2215 6.12834Z" stroke="#FFFDFA"/>
<path d="M20.6139 11.4355L17.1944 6.43549C17.008 6.16296 16.6991 6 16.369 6H5C4.44772 6 4 6.44772 4 7V17C4 17.5523 4.44772 18 5 18H16.369C16.6991 18 17.008 17.837 17.1944 17.5645L20.6139 12.5645C20.8467 12.2242 20.8467 11.7758 20.6139 11.4355Z" stroke="#FFFDFA" stroke-width="2"/>
</svg>
