<svg width="24" height="24" viewBox="0 0 24 24" fill="none" xmlns="http://www.w3.org/2000/svg">
<path d="M9.74973 17.9997C9.55094 17.997 9.36034 17.9201 9.21535 17.7841L3.96535 12.5341C3.84575 12.3884 3.78464 12.2034 3.79388 12.0151C3.80313 11.8268 3.88208 11.6487 4.01539 11.5154C4.14869 11.3821 4.3268 11.3031 4.51509 11.2939C4.70338 11.2846 4.88838 11.3458 5.0341 11.4654L9.74973 16.1904L19.7154 6.21535C19.8611 6.09576 20.0461 6.03464 20.2344 6.04388C20.4226 6.05313 20.6008 6.13208 20.7341 6.26539C20.8674 6.39869 20.9463 6.5768 20.9556 6.76509C20.9648 6.95338 20.9037 7.13838 20.7841 7.2841L10.2841 17.7841C10.1391 17.9201 9.94851 17.997 9.74973 17.9997Z" fill="#EAEAEA"/>
</svg>
