<svg width="20" height="20" viewBox="0 0 20 20" fill="none" xmlns="http://www.w3.org/2000/svg">
<path fill-rule="evenodd" clip-rule="evenodd" d="M9.1665 3.33335C5.94484 3.33335 3.33317 5.94503 3.33317 9.16669C3.33317 12.3883 5.94484 15 9.1665 15C12.3882 15 14.9998 12.3883 14.9998 9.16669C14.9998 5.94503 12.3882 3.33335 9.1665 3.33335ZM1.6665 9.16669C1.6665 5.02455 5.02437 1.66669 9.1665 1.66669C13.3086 1.66669 16.6665 5.02455 16.6665 9.16669C16.6665 13.3088 13.3086 16.6667 9.1665 16.6667C5.02437 16.6667 1.6665 13.3088 1.6665 9.16669Z" fill="#FFFDFA"/>
<path fill-rule="evenodd" clip-rule="evenodd" d="M13.5771 13.5775C13.9025 13.252 14.4302 13.252 14.7556 13.5775L18.0889 16.9108C18.4144 17.2362 18.4144 17.7639 18.0889 18.0893C17.7635 18.4147 17.2359 18.4147 16.9104 18.0893L13.5771 14.756C13.2516 14.4305 13.2516 13.9029 13.5771 13.5775Z" fill="#FFFDFA"/>
</svg>
