<svg width="438" height="500" viewBox="0 0 438 500" fill="none" xmlns="http://www.w3.org/2000/svg">
<path d="M60.056 96.5899L61.6268 93.0899C74.8691 63.5699 102.163 43.6399 132.922 42.2799C136.88 42.1048 140.844 42.2351 144.784 42.6699C173.192 45.8399 199.581 65.2299 212.433 92.3799C220.001 108.38 223.562 127.3 236.071 139.25C252.36 154.81 277.112 152.61 298.799 149.5C320.485 146.39 345.228 144.25 361.44 159.88C371.598 169.67 376.025 184.7 376.739 199.24C378.643 237.73 356.69 274.77 326.111 295.35C295.533 315.93 257.663 321.68 221.572 318.11C171.012 313.11 121.041 289.54 88.2923 248.21C55.5435 206.88 42.2631 147.09 60.056 96.5899Z" fill="#F5F5F5"/>
<path d="M400.358 463.41C400.358 463.55 320.971 463.67 223.076 463.67C125.18 463.67 45.776 463.55 45.776 463.41C45.776 463.27 125.163 463.15 223.076 463.15C320.989 463.15 400.358 463.27 400.358 463.41Z" fill="#263238"/>
<path d="M212.766 426.48L213.718 457.68L221.23 482.13C221.358 482.547 221.404 482.988 221.363 483.425C221.323 483.861 221.197 484.284 220.995 484.668C220.792 485.052 220.517 485.387 220.185 485.654C219.854 485.921 219.474 486.114 219.069 486.22C218.598 486.346 218.106 486.352 217.634 486.235C217.161 486.118 216.723 485.883 216.355 485.55C211.595 481.25 194.136 465.32 194.183 463.04C194.25 460.39 191.118 430.19 191.118 430.19L212.766 426.48Z" fill="#455A64"/>
<path d="M219.04 486.22L194.05 460.93L194.117 462.25C194.17 463.394 194.612 464.48 195.364 465.31C197.372 467.53 203.037 473.52 216.232 485.56C216.611 485.906 217.067 486.147 217.557 486.262C218.047 486.377 218.556 486.363 219.04 486.22V486.22Z" fill="#E0E0E0"/>
<path d="M199.638 450.53C200.016 450.791 200.29 451.188 200.408 451.647C200.526 452.106 200.479 452.595 200.276 453.02C200.042 453.428 199.668 453.727 199.231 453.855C198.794 453.983 198.326 453.931 197.925 453.71C197.515 453.439 197.219 453.014 197.097 452.521C196.975 452.029 197.036 451.506 197.268 451.06C197.553 450.66 197.974 450.393 198.443 450.315C198.913 450.236 199.392 450.353 199.781 450.64" fill="#E0E0E0"/>
<path d="M211.567 473C211.738 473.08 212.328 471.4 214.042 470.43C215.756 469.46 217.403 469.74 217.422 469.54C217.441 469.34 217.06 469.24 216.355 469.18C215.439 469.133 214.528 469.358 213.728 469.831C212.928 470.303 212.271 471.003 211.833 471.85C211.519 472.5 211.491 473 211.567 473Z" fill="#263238"/>
<path d="M213.899 477C214.042 477.13 214.946 476.06 216.46 475.51C217.974 474.96 219.316 475.15 219.316 474.95C219.316 474.75 217.936 474.21 216.222 474.87C214.508 475.53 213.737 477 213.899 477Z" fill="#263238"/>
<path d="M207.359 467.86C207.502 468 208.882 466.35 211.167 465.28C213.452 464.21 215.518 464.16 215.518 463.95C215.518 463.74 213.328 463.48 210.9 464.66C208.473 465.84 207.207 467.78 207.359 467.86Z" fill="#263238"/>
<path d="M206.321 458.4C206.407 458.59 208.006 457.77 210.129 457.57C212.252 457.37 213.937 457.81 214.032 457.57C214.128 457.33 212.347 456.57 210.063 456.85C207.778 457.13 206.217 458.26 206.321 458.4Z" fill="#263238"/>
<path d="M205.826 449.25C205.921 449.43 207.521 448.25 209.777 448.25C212.033 448.25 213.671 449.25 213.766 449.07C213.861 448.89 213.471 448.62 212.757 448.25C211.827 447.773 210.802 447.539 209.768 447.57C208.731 447.585 207.713 447.859 206.797 448.37C206.102 448.8 205.779 449.18 205.826 449.25Z" fill="#263238"/>
<path d="M209.634 446.53C209.719 446.142 209.719 445.738 209.634 445.35C209.476 444.286 209.116 443.266 208.578 442.35C208.246 441.63 207.692 441.048 207.007 440.7C206.772 440.605 206.515 440.589 206.272 440.653C206.028 440.718 205.809 440.86 205.645 441.06C205.354 441.471 205.212 441.979 205.246 442.49C205.363 443.54 205.825 444.515 206.554 445.245C207.282 445.975 208.23 446.416 209.234 446.49C210.221 446.54 211.2 446.282 212.047 445.748C212.895 445.214 213.572 444.428 213.994 443.49C214.098 443.252 214.152 442.992 214.152 442.73C214.152 442.468 214.098 442.209 213.994 441.97C213.865 441.742 213.67 441.562 213.438 441.456C213.205 441.35 212.947 441.324 212.7 441.38C211.974 441.584 211.316 441.992 210.796 442.56C210.021 443.276 209.376 444.133 208.892 445.09C208.684 445.426 208.548 445.804 208.492 446.2C209.199 444.978 210.075 443.872 211.091 442.92C211.566 442.446 212.144 442.103 212.776 441.92C212.91 441.886 213.052 441.899 213.179 441.956C213.306 442.014 213.412 442.114 213.48 442.24C213.535 442.402 213.558 442.574 213.548 442.746C213.538 442.918 213.496 443.086 213.423 443.24C213.037 444.042 212.44 444.711 211.702 445.166C210.965 445.622 210.118 445.845 209.263 445.81C208.42 445.745 207.623 445.382 207.001 444.781C206.379 444.18 205.969 443.377 205.836 442.5C205.805 442.148 205.889 441.795 206.074 441.5C206.161 441.385 206.281 441.302 206.416 441.262C206.551 441.223 206.694 441.229 206.826 441.28C207.397 441.584 207.868 442.061 208.178 442.65C208.87 443.847 209.363 445.159 209.634 446.53V446.53Z" fill="#263238"/>
<path d="M273.304 423.73L273.656 448.47C273.656 448.47 297.751 456.4 298.246 461L252.598 463.45L250.542 424.92L273.304 423.73Z" fill="#455A64"/>
<path d="M259.481 447.15C259.054 447.321 258.7 447.647 258.484 448.07C258.267 448.492 258.202 448.982 258.3 449.45C258.439 449.91 258.741 450.296 259.143 450.529C259.545 450.761 260.017 450.823 260.462 450.7C260.92 450.525 261.3 450.178 261.529 449.725C261.757 449.272 261.818 448.747 261.699 448.25C261.492 447.8 261.132 447.447 260.689 447.262C260.247 447.077 259.755 447.073 259.31 447.25" fill="#E0E0E0"/>
<path d="M252.598 463.41L252.541 459.52L296.333 458.63C296.333 458.63 298.408 459.45 298.237 460.96L252.598 463.41Z" fill="#E0E0E0"/>
<path d="M274.418 448.19C274.418 448.42 273.314 448.59 272.257 449.4C271.2 450.21 270.657 451.22 270.448 451.14C270.239 451.06 270.505 449.69 271.809 448.73C273.114 447.77 274.456 448 274.418 448.19Z" fill="#263238"/>
<path d="M279.311 450C279.368 450.22 278.426 450.67 277.721 451.7C277.017 452.73 276.845 453.79 276.617 453.79C276.388 453.79 276.189 452.48 277.093 451.22C277.997 449.96 279.292 449.79 279.311 450Z" fill="#263238"/>
<path d="M282.319 455.88C282.12 455.94 281.758 454.79 282.262 453.48C282.767 452.17 283.795 451.6 283.9 451.79C284.005 451.98 283.386 452.7 282.948 453.79C282.51 454.88 282.538 455.85 282.319 455.88Z" fill="#263238"/>
<path d="M273.742 442.56C273.666 442.77 272.628 442.51 271.371 442.66C270.115 442.81 269.153 443.29 269.03 443.1C268.906 442.91 269.801 442.02 271.286 441.85C272.771 441.68 273.847 442.37 273.742 442.56Z" fill="#263238"/>
<path d="M314.04 280L303.416 288.46C303.416 288.46 305.9 295.36 309.985 298.61C314.069 301.86 317.791 315.27 317.791 315.27C317.791 315.27 315.811 319.7 317.172 320.35C318.534 321 319.904 319.35 319.904 319.35C319.904 319.35 321.018 321.69 322.627 321.56C324.236 321.43 324.731 318.18 324.731 318.18C324.731 318.18 326.349 321.04 327.711 320C329.072 318.96 330.567 308.15 330.567 308.15L327.463 297.66C327.215 296.878 326.763 296.186 326.159 295.66L317.505 288L314.04 280Z" fill="#FFBE9D"/>
<path d="M325.416 319.26C325.226 319.066 325.074 318.835 324.969 318.58C324.649 317.903 324.449 317.172 324.379 316.42C324.284 315.307 324.345 314.185 324.56 313.09C324.76 311.87 325.207 310.55 325.35 309.19C325.366 307.894 325.004 306.624 324.312 305.55C323.731 304.5 323.132 303.55 322.741 302.7C322.405 302.029 322.213 301.288 322.18 300.53C322.147 300.253 322.176 299.973 322.265 299.71C322.336 300.698 322.605 301.659 323.056 302.53C323.465 303.35 324.084 304.24 324.712 305.31C325.478 306.456 325.872 307.83 325.835 309.23C325.761 309.934 325.631 310.629 325.445 311.31C325.283 311.96 325.131 312.59 325.007 313.19C324.776 314.235 324.683 315.308 324.731 316.38C324.815 317.372 325.047 318.343 325.416 319.26V319.26Z" fill="#EB996E"/>
<path d="M320.733 316.36C320.866 316.42 320.733 317.08 320.571 317.89C320.409 318.7 320.333 319.37 320.2 319.37C320.066 319.37 319.923 318.66 320.085 317.79C320.247 316.92 320.609 316.3 320.733 316.36Z" fill="#EB996E"/>
<path d="M182.616 268.94C182.616 269.81 183.654 339.09 183.911 344.4C184.054 347.6 184.206 370.97 185.282 388.34C186.767 412.34 191.108 450.77 191.108 450.77L213.766 449.09C213.766 449.09 217.831 351.09 217.707 365.2C217.707 367.03 225.418 288.49 225.418 288.49L217.545 266.19L182.616 268.94Z" fill="#263238"/>
<path d="M218.002 292.55L242.469 366.81L249.304 447.59L274.389 446.53C274.389 446.53 275.494 366.41 273.837 358.26C272.181 350.11 257.12 266.16 257.12 266.16L217.526 260.64L218.002 292.55Z" fill="#263238"/>
<path d="M275.598 216.81C275.884 217.81 287.584 252.46 287.584 252.46L306.405 295.88L316.22 288.49L306.081 249.19L299.313 213.3L275.598 216.81Z" fill="#FFBE9D"/>
<path d="M194.64 270.86C194.64 270.86 210.881 282.12 223.743 282.5C230.055 282.659 236.322 281.337 242.086 278.63C247.851 275.922 252.967 271.898 257.063 266.85L258.015 265.4C258.388 264.835 258.561 264.151 258.504 263.465C258.447 262.78 258.162 262.138 257.701 261.65L257.32 261.25L255.873 243.12L256.825 238.01L272.419 212.88L279.587 202.36L285.794 175.8L258.957 154.15L244.354 150.33L224.057 167.91C224.057 167.91 200.476 199.1 196.192 215.11C191.908 231.12 182.645 266.19 182.645 266.19L194.64 270.86Z" fill="#A3333D"/>
<path d="M285.204 175.3C289.578 178.092 292.905 182.378 294.629 187.44C297.675 196.06 303.197 225.11 303.197 225.11L273.828 227.52L268.449 210.47L285.204 175.3Z" fill="#A3333D"/>
<path d="M179.799 247.75L180.827 259.25L179.332 271.32L180.446 282.23L187.71 288.8C187.71 288.8 193.736 293.73 192.955 289.86C192.955 289.86 194.516 290.91 194.964 289.62C195.411 288.33 192.841 283.87 192.841 283.87L189.718 273.08L191.622 270.97C191.622 270.97 193.631 277.89 195.031 280.24C195.426 280.918 195.955 281.499 196.582 281.945C197.21 282.39 197.921 282.688 198.667 282.82L197.772 278.36L196.763 268.85L192.812 256L193.393 249L179.799 247.75Z" fill="#FFBE9D"/>
<path d="M318.372 306C316.991 307.33 315.144 308 313.516 309C311.889 310 310.346 311.58 310.356 313.55C310.356 314.63 310.813 315.76 310.356 316.73C309.899 317.7 308.833 318 308.1 318.73C307.557 319.341 307.199 320.106 307.071 320.93C306.942 321.754 307.048 322.599 307.376 323.36C307.63 324.033 307.976 324.663 308.404 325.23C308.83 325.798 309.414 326.211 310.076 326.41C310.737 326.61 311.441 326.585 312.088 326.34L312.431 326.24C312.826 326.118 313.242 326.087 313.649 326.149C314.057 326.211 314.447 326.365 314.792 326.6C315.279 327.091 315.731 327.619 316.144 328.18C316.626 328.672 317.247 328.986 317.914 329.073C318.581 329.161 319.257 329.017 319.838 328.664C320.42 328.311 320.877 327.767 321.138 327.117C321.399 326.467 321.45 325.744 321.285 325.06L325.378 325.53C325.65 325.601 325.933 325.613 326.209 325.567C326.485 325.521 326.75 325.416 326.987 325.26C327.187 325.033 327.334 324.761 327.417 324.464C327.499 324.167 327.515 323.854 327.463 323.55C327.413 322.091 327.143 320.65 326.664 319.28C326.344 318.577 326.172 317.809 326.159 317.03C326.294 316.34 326.505 315.669 326.787 315.03C327.176 313.573 327.026 312.016 326.368 310.67C325.713 309.341 324.904 308.101 323.96 306.98C323.457 306.143 322.723 305.488 321.856 305.1C320.695 304.74 319.486 305.39 318.429 306.02" fill="white"/>
<path d="M304.663 288.49C304.787 289.01 305.034 293.69 306.643 296.95C308.252 300.21 313.459 304.63 313.459 304.63C313.459 304.63 315.687 315.3 317.791 316.47C319.895 317.64 322.256 316.21 321.761 312.96C321.022 309.483 320.1 306.051 319 302.68C319 302.68 319.124 296.43 319.124 295.91C319.124 295.39 304.663 288.49 304.663 288.49Z" fill="#FFBE9D"/>
<path d="M319.133 297.31C319.189 297.777 319.208 298.249 319.19 298.72C319.19 299.72 319.19 301.04 319.19 302.72V302.66C319.942 305.02 320.961 308.12 321.789 311.84C322.067 312.812 322.125 313.839 321.961 314.84C321.856 315.4 321.595 315.915 321.21 316.317C320.825 316.72 320.333 316.993 319.8 317.1C319.249 317.204 318.683 317.145 318.162 316.93C317.624 316.72 317.163 316.335 316.848 315.83C316.258 314.86 315.782 313.819 315.43 312.73C314.536 310.117 313.808 307.444 313.25 304.73L313.326 304.87C311.411 303.225 309.64 301.405 308.033 299.43C307.337 298.584 306.754 297.642 306.3 296.63C305.931 295.763 305.638 294.863 305.424 293.94C305.117 292.625 304.901 291.288 304.777 289.94L304.691 288.88C304.691 288.63 304.691 288.51 304.691 288.51C304.691 288.51 304.891 290.51 305.72 293.83C305.965 294.73 306.284 295.606 306.672 296.45C307.132 297.415 307.712 298.313 308.395 299.12C310.006 301.053 311.774 302.837 313.678 304.45L313.745 304.51V304.59C314.319 307.284 315.051 309.939 315.935 312.54C316.27 313.593 316.724 314.6 317.286 315.54C317.553 315.952 317.929 316.272 318.367 316.462C318.805 316.653 319.287 316.704 319.752 316.61C320.196 316.521 320.605 316.294 320.926 315.959C321.246 315.624 321.464 315.196 321.551 314.73C321.7 313.796 321.648 312.839 321.399 311.93C320.609 308.25 319.647 305.13 318.952 302.76V302.71C319.01 301.06 319.067 299.71 319.095 298.71C319.076 298.243 319.089 297.775 319.133 297.31Z" fill="#EB996E"/>
<path d="M255.873 241.06C255.508 241.271 255.121 241.438 254.721 241.56C253.969 241.85 252.817 242.22 251.494 242.64C247.899 243.707 244.228 244.466 240.517 244.91C236.808 245.354 233.07 245.488 229.341 245.31C227.903 245.23 226.751 245.13 225.961 245.02C225.542 244.998 225.127 244.928 224.723 244.81C225.138 244.769 225.556 244.769 225.971 244.81C226.77 244.81 227.922 244.9 229.35 244.93C233.061 245.001 236.772 244.821 240.46 244.39C244.149 243.938 247.806 243.233 251.408 242.28C252.788 241.92 253.902 241.6 254.673 241.37C255.063 241.228 255.465 241.124 255.873 241.06V241.06Z" fill="#263238"/>
<path d="M285.128 195.45C284.926 195.811 284.687 196.146 284.414 196.45C283.919 197.07 283.224 197.98 282.386 199.11C280.692 201.38 278.464 204.59 276.084 208.21C273.704 211.83 271.581 215.12 269.982 217.47C269.182 218.64 268.525 219.58 268.078 220.22C267.859 220.584 267.6 220.92 267.306 221.22C267.479 220.84 267.686 220.478 267.925 220.14L269.724 217.3C271.248 214.9 273.323 211.57 275.703 207.95C278.083 204.33 280.368 201.14 282.139 198.95C283.024 197.85 283.757 196.95 284.29 196.39C284.53 196.04 284.811 195.724 285.128 195.45Z" fill="#263238"/>
<path d="M209.425 169.5C208.368 169.41 179.665 197.77 177.59 202.78C175.515 207.79 180.693 256.78 180.693 256.78L192.812 255.98L196.62 209.98L223.134 185.91L209.425 169.5Z" fill="#FFBE9D"/>
<path d="M246.648 170.62L216.432 196.69L197.106 171.43C197.106 171.43 221.068 154.6 226.38 151.9C235.329 147.34 244.401 150.33 244.401 150.33L246.648 170.62Z" fill="#A3333D"/>
<path d="M236.823 185.22C236.727 185.339 236.618 185.446 236.5 185.54L235.548 186.41C234.596 187.18 233.339 188.24 231.74 189.53L218.935 200L218.745 200.15L218.593 199.95C217.783 198.89 216.927 197.77 216.051 196.64L204.246 181L200.704 176.25L199.752 174.94C199.534 174.64 199.429 174.47 199.448 174.46C199.589 174.584 199.717 174.725 199.829 174.88L200.838 176.12L204.493 180.77L216.422 196.24L218.954 199.56H218.621L231.521 189.26L235.329 186.26L236.385 185.47C236.518 185.363 236.666 185.279 236.823 185.22Z" fill="#263238"/>
<path d="M224.752 291C224.775 291.203 224.775 291.407 224.752 291.61C224.704 292.07 224.647 292.61 224.581 293.35C224.438 294.93 224.228 297.1 223.981 299.75C223.495 305.16 222.924 312.64 222.277 320.9C221.629 329.16 221.001 336.65 220.373 342.05C220.097 344.75 219.83 346.93 219.621 348.44C219.516 349.14 219.421 349.72 219.354 350.17C219.336 350.371 219.295 350.569 219.23 350.76C219.205 350.558 219.205 350.352 219.23 350.15C219.23 349.7 219.326 349.15 219.402 348.41C219.545 346.83 219.754 344.66 220.002 342.01C220.478 336.6 221.049 329.12 221.706 320.86C222.362 312.6 222.981 305.12 223.552 299.72C223.838 297.01 224.105 294.83 224.314 293.33L224.571 291.6C224.615 291.395 224.675 291.194 224.752 291V291Z" fill="#455A64"/>
<path d="M281.872 172.62C281.683 172.971 281.466 173.306 281.225 173.62L279.321 176.48C277.157 178.596 274.443 179.989 271.524 180.48C269.559 180.817 267.548 180.705 265.628 180.153C263.707 179.601 261.923 178.621 260.395 177.28C257.845 175.066 255.982 172.103 255.045 168.77C254.299 166.063 254.165 163.211 254.654 160.44C254.963 158.58 255.538 156.78 256.358 155.1C256.654 154.5 256.901 154.1 257.082 153.77C257.263 153.44 257.368 153.33 257.387 153.34C257.406 153.35 257.053 153.99 256.53 155.18C255.793 156.873 255.278 158.662 254.997 160.5C254.572 163.217 254.738 166 255.483 168.64C256.421 171.864 258.238 174.729 260.709 176.88C262.263 178.224 264.075 179.199 266.021 179.74C267.798 180.206 269.644 180.304 271.457 180.03C274.31 179.562 276.972 178.235 279.121 176.21C279.958 175.07 280.644 174.14 281.148 173.44C281.368 173.146 281.61 172.872 281.872 172.62V172.62Z" fill="#263238"/>
<g opacity="0.3">
<path d="M198.858 207.91L213.814 199.24L218.812 202.68L233.396 188.04L218.726 199.87L214.213 193.97L198.858 207.91Z" fill="black"/>
</g>
<g opacity="0.3">
<path d="M270.305 216.75C273.529 215.552 276.197 213.11 277.769 209.92C279.613 206.466 281.076 202.803 282.129 199L270.305 216.75Z" fill="black"/>
</g>
<g opacity="0.3">
<path d="M216.812 235.72C218.393 238.67 221.249 240.32 224.314 241.38C227.414 242.308 230.612 242.828 233.834 242.93C236.608 243.222 239.401 243.268 242.183 243.07C244.979 242.865 247.682 241.93 250.047 240.35C238.851 239.87 227.484 239.36 216.812 235.72Z" fill="black"/>
</g>
<path d="M216.117 277C216.269 276.978 216.423 276.978 216.574 277L217.86 277.12C218.421 277.19 219.097 277.26 219.897 277.28C220.696 277.3 221.601 277.39 222.6 277.35C223.6 277.31 224.704 277.35 225.875 277.21C227.046 277.07 228.303 276.95 229.607 276.77C235.303 275.849 240.789 273.836 245.791 270.83C246.924 270.12 248.019 269.46 248.971 268.73C249.923 268 250.827 267.35 251.608 266.73C252.389 266.11 253.074 265.44 253.683 264.9C254.293 264.36 254.788 263.9 255.187 263.44L256.139 262.5C256.244 262.384 256.362 262.283 256.492 262.2C256.414 262.337 256.321 262.465 256.216 262.58L255.34 263.58C254.959 264.02 254.483 264.58 253.893 265.11C253.302 265.64 252.655 266.36 251.846 267C251.007 267.752 250.129 268.457 249.218 269.11C248.266 269.86 247.172 270.53 246.039 271.27C241.015 274.356 235.471 276.393 229.712 277.27C228.379 277.44 227.122 277.63 225.904 277.66C224.805 277.745 223.702 277.771 222.6 277.74C221.591 277.74 220.696 277.64 219.878 277.59C219.195 277.547 218.515 277.463 217.84 277.34L216.555 277.12C216.404 277.108 216.255 277.067 216.117 277V277Z" fill="#263238"/>
<path d="M258.653 282.45C258.096 282.514 257.532 282.442 257.006 282.24C255.703 281.846 254.496 281.164 253.464 280.24C252.437 279.315 251.607 278.174 251.027 276.89C250.753 276.375 250.597 275.8 250.57 275.21C250.859 275.695 251.116 276.199 251.341 276.72C252.616 279.106 254.663 280.933 257.11 281.87C257.638 282.02 258.154 282.214 258.653 282.45Z" fill="#455A64"/>
<path d="M243.316 172.74C243.24 172.74 243.554 171.38 243.954 169.2C244.531 166.389 244.663 163.497 244.344 160.64C243.976 157.793 242.756 155.142 240.86 153.07C240.026 152.266 239.109 151.562 238.128 150.97C238.436 151.022 238.733 151.134 239.003 151.3C239.771 151.684 240.478 152.19 241.098 152.8C243.141 154.871 244.459 157.605 244.839 160.56C245.168 163.477 244.984 166.433 244.297 169.28C244.059 170.37 243.821 171.28 243.64 171.83C243.575 172.149 243.466 172.455 243.316 172.74V172.74Z" fill="#263238"/>
<path d="M316.001 118.27C317.562 117.55 317.962 115.21 317.153 113.62C316.217 112.084 314.755 110.985 313.069 110.55C311.402 110.129 309.759 109.612 308.147 109C305.948 108 304.225 106.12 302.378 104.5C300.531 102.88 298.332 101.43 295.924 101.5C293.172 101.56 290.783 103.58 288.06 104.01C284.566 104.56 280.511 102.56 277.712 104.83C275.912 106.28 275.484 108.91 274.17 110.83C273.218 112.24 271.819 113.24 270.743 114.54C268.973 116.867 267.997 119.751 267.973 122.73C267.976 125.688 268.295 128.637 268.925 131.52L285.052 112.29C288.86 120.4 296.19 126.29 304.234 129.51C307.031 130.813 310.097 131.35 313.145 131.07C316.154 130.62 319.114 128.61 320.019 125.56C320.923 122.51 319 118.66 316.001 118.27Z" fill="#263238"/>
<path d="M299.008 109.34L298.056 108.83C287.774 103.91 278.064 110.33 273.656 121.26L258.91 154.15C254.845 162.94 257.577 174.91 266.526 177.49C271.429 178.9 277.255 177.05 279.644 172.35C280.406 170.85 281.739 167.5 281.796 167.41C281.853 167.32 292.173 171.16 297.352 161.15C299.855 156.32 304.234 145.93 308.09 136.48C310.098 131.585 310.278 126.075 308.596 121.047C306.913 116.018 303.49 111.839 299.008 109.34V109.34Z" fill="#FFBE9D"/>
<path d="M281.872 167.41C277.446 164.941 273.788 161.189 271.333 156.6C271.333 156.6 270.524 166.15 280.549 170.6L281.872 167.41Z" fill="#EB996E"/>
<path d="M301.036 144.79C300.85 145.166 300.533 145.451 300.151 145.585C299.769 145.719 299.352 145.693 298.989 145.51C298.807 145.429 298.642 145.31 298.504 145.16C298.367 145.011 298.259 144.834 298.188 144.64C298.117 144.446 298.084 144.238 298.091 144.031C298.097 143.823 298.144 143.619 298.227 143.43C298.411 143.053 298.728 142.766 299.111 142.631C299.494 142.497 299.911 142.525 300.274 142.71C300.456 142.791 300.621 142.91 300.759 143.06C300.896 143.209 301.004 143.386 301.075 143.58C301.146 143.774 301.179 143.982 301.172 144.189C301.166 144.397 301.119 144.601 301.036 144.79V144.79Z" fill="#263238"/>
<path d="M303.635 140.26C303.368 140.35 302.74 138.97 301.264 138.16C299.789 137.35 298.323 137.52 298.256 137.24C298.256 137.11 298.561 136.87 299.208 136.77C300.078 136.661 300.958 136.836 301.731 137.27C302.496 137.697 303.116 138.365 303.501 139.18C303.768 139.8 303.768 140.22 303.635 140.26Z" fill="#263238"/>
<path d="M287.175 137.42C286.989 137.795 286.672 138.081 286.29 138.215C285.908 138.349 285.491 138.322 285.128 138.14C284.946 138.057 284.783 137.938 284.646 137.788C284.509 137.638 284.402 137.462 284.331 137.268C284.26 137.074 284.227 136.868 284.233 136.66C284.239 136.453 284.284 136.249 284.366 136.06C284.548 135.681 284.865 135.392 285.249 135.257C285.632 135.122 286.05 135.152 286.413 135.34C286.596 135.42 286.762 135.538 286.9 135.688C287.038 135.837 287.146 136.014 287.218 136.209C287.289 136.403 287.322 136.611 287.314 136.819C287.307 137.027 287.259 137.231 287.175 137.42V137.42Z" fill="#263238"/>
<path d="M289.002 132.52C288.745 132.61 288.108 131.23 286.632 130.41C285.156 129.59 283.69 129.78 283.624 129.5C283.624 129.37 283.928 129.13 284.576 129.03C285.446 128.92 286.326 129.095 287.098 129.53C287.868 129.951 288.489 130.62 288.869 131.44C289.145 132.05 289.136 132.48 289.002 132.52Z" fill="#263238"/>
<path d="M288.584 147C289.487 147.176 290.366 147.468 291.202 147.87C291.601 148.04 292.001 148.16 292.201 147.93C292.436 147.535 292.552 147.075 292.534 146.61C292.658 145.46 292.791 144.25 292.934 142.99C293.544 137.85 294.2 133.7 294.391 133.73C294.581 133.76 294.258 137.95 293.648 143.09C293.486 144.35 293.334 145.56 293.191 146.71C293.186 147.317 292.981 147.904 292.611 148.37C292.481 148.485 292.327 148.566 292.161 148.606C291.996 148.646 291.823 148.644 291.659 148.6C291.42 148.546 291.189 148.459 290.973 148.34C290.127 148 289.324 147.55 288.584 147V147Z" fill="#263238"/>
<path d="M283.709 145.62C283.957 145.74 283.119 147.42 283.881 149.38C284.642 151.34 286.451 152.09 286.346 152.38C286.242 152.67 285.804 152.5 285.071 152.12C284.128 151.612 283.383 150.774 282.967 149.75C282.584 148.759 282.584 147.651 282.967 146.66C283.214 145.87 283.605 145.55 283.709 145.62Z" fill="#263238"/>
<path d="M292.439 126.66C292.077 127 290.707 125.99 288.869 125.25C287.032 124.51 285.385 124.25 285.347 123.72C285.347 123.48 285.775 123.22 286.546 123.13C287.549 123.046 288.557 123.204 289.493 123.592C290.428 123.98 291.267 124.588 291.944 125.37C292.449 126 292.601 126.5 292.439 126.66Z" fill="#263238"/>
<path d="M305.348 135.48C304.91 135.69 304.082 134.76 302.864 134.07C301.645 133.38 300.493 133.07 300.436 132.55C300.436 132.32 300.769 132.05 301.388 131.97C302.195 131.909 303.001 132.101 303.704 132.521C304.407 132.941 304.976 133.571 305.339 134.33C305.586 134.93 305.548 135.37 305.348 135.48Z" fill="#263238"/>
<path d="M270.743 129.16C270.619 128.99 265.183 123.45 261.928 130.46C258.672 137.47 266.04 139.46 266.145 139.25C266.25 139.04 270.743 129.16 270.743 129.16Z" fill="#FFBE9D"/>
<path d="M265.345 135.55C265.345 135.55 265.183 135.55 264.945 135.55C264.613 135.535 264.299 135.384 264.07 135.13C263.489 134.49 263.441 133.02 264.003 131.74C264.261 131.13 264.649 130.589 265.136 130.16C265.298 129.972 265.502 129.829 265.729 129.743C265.957 129.658 266.201 129.633 266.44 129.67C266.591 129.699 266.728 129.783 266.826 129.907C266.923 130.032 266.976 130.189 266.973 130.35C266.973 130.6 266.868 130.71 266.897 130.74C266.926 130.77 267.087 130.74 267.173 130.38C267.217 130.189 267.197 129.987 267.116 129.81C267.06 129.69 266.981 129.583 266.884 129.495C266.788 129.408 266.676 129.341 266.554 129.3C266.254 129.219 265.939 129.22 265.64 129.303C265.34 129.385 265.065 129.546 264.841 129.77C264.275 130.23 263.824 130.827 263.527 131.51C262.918 132.95 262.994 134.62 263.822 135.4C263.975 135.546 264.157 135.654 264.354 135.716C264.552 135.779 264.761 135.794 264.964 135.76C265.25 135.72 265.364 135.58 265.345 135.55Z" fill="#EB996E"/>
<path d="M313.012 127.14C311.041 129.49 304.549 128.61 300.426 125.76C296.618 123.13 295.885 119.87 293.915 116.61C292.668 114.54 292.668 114.54 290.002 113.39C287.851 112.46 285.413 114.22 283.338 115.24C282.615 121.39 278.502 126.41 274.561 131.03C274.183 131.594 273.631 132.003 272.999 132.19C271.914 132.39 271 131.26 270.696 130.14C270.114 128.461 270.041 126.635 270.486 124.91C271.899 120.725 274.061 116.862 276.855 113.53C279.448 110.242 282.904 107.829 286.794 106.59C291.725 105.213 296.973 105.905 301.426 108.52C305.825 111.15 309.325 115.166 311.432 120C312.51 122.193 313.053 124.632 313.012 127.1" fill="#263238"/>
<path d="M276.798 106C276.798 106 277.179 105.64 277.969 105.46C279.006 105.239 280.084 105.381 281.038 105.863C281.991 106.345 282.769 107.141 283.252 108.13C283.605 108.89 283.633 109.42 283.576 109.43C283.519 109.44 283.357 108.97 282.948 108.32C282.432 107.459 281.696 106.769 280.824 106.329C279.951 105.888 278.978 105.715 278.016 105.83C277.615 105.917 277.207 105.974 276.798 106V106Z" fill="#455A64"/>
<path d="M268.22 127.38C269.246 126.692 270.132 125.798 270.829 124.75C272.389 122.116 273.447 119.188 273.942 116.13C274.153 115.24 274.473 114.383 274.894 113.58C276.052 111.618 277.822 110.138 279.901 109.39C280.786 109.069 281.749 109.069 282.634 109.39C282.871 109.479 283.092 109.607 283.29 109.77C283.43 109.87 283.497 109.93 283.49 109.95C283.403 109.936 283.319 109.906 283.243 109.86C283.03 109.745 282.806 109.651 282.576 109.58C281.73 109.336 280.831 109.374 280.006 109.69C278.774 110.162 277.659 110.917 276.741 111.9C276.187 112.457 275.706 113.089 275.313 113.78C274.926 114.548 274.635 115.365 274.446 116.21C273.943 119.326 272.81 122.292 271.124 124.91C270.589 125.698 269.921 126.375 269.153 126.91C268.941 127.047 268.718 127.164 268.487 127.26C268.316 127.37 268.23 127.4 268.22 127.38Z" fill="#455A64"/>
<path d="M316.192 117.81C316.089 117.891 315.977 117.959 315.858 118.01C315.521 118.159 315.17 118.273 314.811 118.35C313.473 118.594 312.097 118.434 310.841 117.89C309.019 117.051 307.394 115.801 306.081 114.23C304.527 112.323 302.858 110.522 301.083 108.84C299.242 107.267 296.971 106.352 294.6 106.23C292.66 106.122 290.719 106.417 288.888 107.1C287.647 107.556 286.449 108.131 285.309 108.82C284.896 109.089 284.47 109.336 284.033 109.56C284.384 109.202 284.778 108.893 285.204 108.64C286.328 107.88 287.524 107.247 288.774 106.75C290.637 106 292.626 105.66 294.619 105.75C297.095 105.852 299.472 106.792 301.398 108.43C303.189 110.128 304.866 111.956 306.415 113.9C307.684 115.445 309.251 116.69 311.013 117.55C312.21 118.097 313.523 118.304 314.821 118.15C315.697 118 316.144 117.76 316.192 117.81Z" fill="#455A64"/>
<path d="M244.239 200.41L223.096 229.88C229.02 233.066 235.301 235.458 241.793 237L263.965 206.76L244.239 200.41Z" fill="white"/>
<path d="M225.418 231.07L223.962 235.72L243.535 239.46V237.33C243.535 237.33 230.464 233.8 225.418 231.07Z" fill="white"/>
<path d="M253.179 238.69C252.707 238.73 252.232 238.73 251.76 238.69C250.808 238.69 249.523 238.53 247.905 238.31C239.42 237.178 231.191 234.49 223.591 230.37C222.134 229.57 220.982 228.89 220.211 228.37C219.792 228.13 219.394 227.853 219.021 227.54C219.468 227.714 219.898 227.932 220.306 228.19C221.106 228.65 222.286 229.28 223.743 230.03C231.38 233.952 239.545 236.62 247.952 237.94C249.561 238.2 250.875 238.38 251.76 238.48C252.239 238.498 252.714 238.568 253.179 238.69V238.69Z" fill="#263238"/>
<path d="M346.418 394.68C345.894 393.439 345.139 392.321 344.197 391.392C343.255 390.463 342.146 389.741 340.934 389.27C338.516 388.47 335.879 389.07 333.318 388.69C330.51 388.27 327.958 386.69 325.15 386.27C322.342 385.85 318.848 387.53 318.8 390.51C316.862 389.767 314.746 389.705 312.771 390.335C310.797 390.964 309.07 392.25 307.852 394L348.455 402.46C348.125 399.779 347.439 397.16 346.418 394.68Z" fill="#E0E0E0"/>
<path d="M311.841 454L297.561 460.78V463.78L311.841 460.57V454Z" fill="#263238"/>
<path d="M304.73 394.7L310.47 462.98H360.06L361.116 394.7H304.73Z" fill="#A3333D"/>
<path d="M361.116 394.7H368.685C368.685 394.7 367.447 442.52 360.298 447.26L355.957 426.32L361.116 394.7Z" fill="#A3333D"/>
<path d="M368.685 402C368.685 402 373.093 398.2 373.445 395.27C373.797 392.34 368.685 378.79 368.685 378.79C368.685 378.79 354.481 343.35 351.339 338.59C349.275 335.62 346.444 333.333 343.181 332L341.096 332.73C341.096 332.73 351.873 357.23 357.794 371.23C360.545 377.983 363.67 384.56 367.152 390.93L360.174 400.42L368.685 402Z" fill="#A3333D"/>
<path d="M361.116 392.64H301.721V395.12H361.116V392.64Z" fill="#A3333D"/>
<path d="M360.412 395.42C360.412 395.56 347.189 395.68 330.9 395.68C314.611 395.68 301.388 395.56 301.388 395.42C301.388 395.28 314.602 395.16 330.9 395.16C347.198 395.16 360.412 395.28 360.412 395.42Z" fill="#263238"/>
<path d="M360.888 433C360.755 433 360.64 424 360.64 413C360.64 402 360.755 393 360.888 393C361.021 393 361.136 402 361.136 413C361.136 424 361.012 433 360.888 433Z" fill="#263238"/>
<path d="M367.152 391C367.279 390.829 367.343 390.616 367.333 390.4C367.32 389.767 367.246 389.137 367.114 388.52C366.613 386.247 365.996 384.004 365.267 381.8C363.477 376.19 360.679 368.56 357.194 360.3C354.311 353.213 350.949 346.352 347.132 339.77C345.983 337.775 344.619 335.926 343.067 334.26C342.489 333.665 341.823 333.172 341.096 332.8C341.305 332.843 341.507 332.917 341.696 333.02C342.243 333.308 342.749 333.675 343.2 334.11C344.818 335.74 346.238 337.574 347.427 339.57C351.342 346.117 354.761 352.979 357.651 360.09C360.659 367.139 363.313 374.349 365.6 381.69C366.308 383.915 366.877 386.187 367.304 388.49C367.42 389.119 367.462 389.76 367.428 390.4C367.417 390.572 367.368 390.74 367.285 390.89C367.209 390.94 367.152 391 367.152 391Z" fill="#263238"/>
<g opacity="0.3">
<path d="M367.152 391C363.67 384.63 360.545 378.052 357.794 371.3C351.873 357.3 341.096 332.8 341.096 332.8C341.096 332.8 345.209 334.49 350.216 344.8C355.224 355.11 360.859 369.11 363.963 377.22C368.057 387.92 367.152 391 367.152 391Z" fill="black"/>
</g>
<path d="M348.674 421.77C348.344 422.057 347.991 422.311 347.617 422.53C346.913 423 345.894 423.64 344.609 424.4C342.057 425.94 338.459 427.94 334.375 429.92C330.291 431.9 326.502 433.47 323.731 434.52C322.342 435.05 321.218 435.45 320.428 435.7C320.026 435.858 319.612 435.978 319.19 436.06C319.561 435.833 319.953 435.649 320.361 435.51L323.608 434.18C326.34 433.04 330.091 431.42 334.165 429.45C338.24 427.48 341.848 425.53 344.447 424.08L347.512 422.36C347.88 422.123 348.269 421.926 348.674 421.77V421.77Z" fill="#263238"/>
<path d="M349.255 416.52C349.255 416.52 349.045 416.79 348.626 417.19C348.207 417.59 347.56 418.19 346.722 418.82C342.466 422.268 337.682 424.929 332.576 426.69C331.624 427.03 330.805 427.27 330.243 427.4C329.959 427.509 329.66 427.567 329.358 427.57C329.358 427.49 330.548 427.1 332.461 426.34C334.954 425.368 337.384 424.226 339.735 422.92C342.08 421.609 344.344 420.143 346.513 418.53C348.207 417.29 349.197 416.46 349.255 416.52Z" fill="#263238"/>
<path d="M311.203 454.32C311.157 454.15 311.129 453.976 311.117 453.8C311.07 453.4 311.022 452.91 310.956 452.31C310.832 450.94 310.66 449.08 310.451 446.83C310.061 442.12 309.499 435.76 308.937 428.72C308.376 421.68 307.852 415.31 307.471 410.61C307.29 408.35 307.138 406.49 307.033 405.12C306.989 404.52 306.951 404.02 306.919 403.62C306.894 403.448 306.894 403.272 306.919 403.1C306.974 403.265 307.009 403.436 307.024 403.61C307.071 404.01 307.138 404.5 307.224 405.1C307.376 406.39 307.586 408.26 307.814 410.57C308.28 415.2 308.852 421.57 309.432 428.68C310.013 435.79 310.48 442.16 310.803 446.8C310.946 449.06 311.06 450.92 311.146 452.29L311.213 453.79C311.238 453.966 311.235 454.145 311.203 454.32V454.32Z" fill="white"/>
<path d="M349.197 393.39C349.197 393.54 340.801 393.66 330.443 393.66C320.085 393.66 311.689 393.54 311.689 393.39C311.689 393.24 320.085 393.13 330.443 393.13C340.801 393.13 349.197 393.25 349.197 393.39Z" fill="white"/>
<path d="M356.309 354.57C356.176 354.62 355.147 352.09 353.672 349.07C352.196 346.05 350.863 343.67 350.987 343.59C353.376 346.891 355.179 350.617 356.309 354.59V354.57Z" fill="white"/>
</svg>
