<svg width="80" height="80" viewBox="0 0 80 80" fill="none" xmlns="http://www.w3.org/2000/svg">
<path d="M73.5626 65.625C69.1797 58.0677 62.3752 52.2102 54.2501 49C58.2379 46.0092 61.1836 41.8395 62.6698 37.0815C64.1561 32.3235 64.1077 27.2185 62.5314 22.4896C60.9551 17.7607 57.9308 13.6476 53.887 10.733C49.8432 7.81839 44.9848 6.25 40.0001 6.25C35.0154 6.25 30.1571 7.81839 26.1133 10.733C22.0695 13.6476 19.0452 17.7607 17.4689 22.4896C15.8926 27.2185 15.8442 32.3235 17.3304 37.0815C18.8167 41.8395 21.7624 46.0092 25.7501 49C17.625 52.2102 10.8206 58.0677 6.43764 65.625C5.94036 66.487 5.80585 67.5111 6.06372 68.4723C6.32158 69.4334 6.95069 70.2527 7.81264 70.75C8.67459 71.2473 9.69879 71.3818 10.6599 71.1239C11.621 70.8661 12.4404 70.237 12.9376 69.375C15.6805 64.6248 19.6254 60.6802 24.3758 57.9377C29.1263 55.1952 34.5149 53.7514 40.0001 53.7514C45.4854 53.7514 50.874 55.1952 55.6245 57.9377C60.3749 60.6802 64.3198 64.6248 67.0626 69.375C67.3944 69.9433 67.8687 70.4152 68.4387 70.744C69.0087 71.0729 69.6546 71.2473 70.3126 71.25C70.9713 71.2553 71.6191 71.0825 72.1876 70.75C72.6146 70.504 72.989 70.1762 73.2892 69.7854C73.5894 69.3946 73.8097 68.9485 73.9374 68.4725C74.0651 67.9965 74.0977 67.5 74.0334 67.0114C73.9691 66.5229 73.8091 66.0517 73.5626 65.625ZM23.7501 30C23.7501 26.7861 24.7032 23.6443 26.4888 20.972C28.2743 18.2997 30.8122 16.2169 33.7815 14.987C36.7508 13.757 40.0182 13.4352 43.1704 14.0622C46.3226 14.6892 49.218 16.2369 51.4906 18.5095C53.7632 20.7821 55.3109 23.6776 55.9379 26.8298C56.5649 29.982 56.2431 33.2493 55.0132 36.2186C53.7833 39.1879 51.7005 41.7258 49.0282 43.5114C46.3559 45.297 43.2141 46.25 40.0001 46.25C35.6904 46.25 31.5571 44.5379 28.5097 41.4905C25.4622 38.443 23.7501 34.3098 23.7501 30Z" fill="#EAEAEA"/>
</svg>
